<?xml version="1.0" encoding="UTF-8" standalone="no"?>
<svg
   height="2500"
   width="2500"
   viewBox="-26.938058686785695 -60.82847042726202 136.13233520612619 165.53691961064789"
   version="1.1"
   id="svg23"
   sodipodi:docname="elixir-1.svg"
   inkscape:version="1.3.1 (9b9bdc1480, 2023-11-25, custom)"
   xmlns:inkscape="http://www.inkscape.org/namespaces/inkscape"
   xmlns:sodipodi="http://sodipodi.sourceforge.net/DTD/sodipodi-0.dtd"
   xmlns="http://www.w3.org/2000/svg"
   xmlns:svg="http://www.w3.org/2000/svg">
  <defs
     id="defs23" />
  <sodipodi:namedview
     id="namedview23"
     pagecolor="#ffffff"
     bordercolor="#000000"
     borderopacity="0.25"
     inkscape:showpageshadow="2"
     inkscape:pageopacity="0.0"
     inkscape:pagecheckerboard="0"
     inkscape:deskcolor="#d1d1d1"
     inkscape:zoom="0.3264"
     inkscape:cx="1248.4681"
     inkscape:cy="1250"
     inkscape:window-width="2560"
     inkscape:window-height="1016"
     inkscape:window-x="0"
     inkscape:window-y="0"
     inkscape:window-maximized="1"
     inkscape:current-layer="svg23" />
  <linearGradient
     id="a"
     gradientTransform="matrix(0.1297,0,0,0.19998,11.41,0)"
     gradientUnits="userSpaceOnUse"
     x1="167.517"
     x2="160.31"
     y1="24.393"
     y2="320.034">
    <stop
       offset="0"
       stop-color="#d9d8dc"
       id="stop1" />
    <stop
       offset="1"
       stop-color="#fff"
       stop-opacity=".385"
       id="stop2" />
  </linearGradient>
  <linearGradient
     id="b"
     gradientTransform="matrix(0.1142,0,0,0.22712,11.41,0)"
     gradientUnits="userSpaceOnUse"
     x1="199.036"
     x2="140.071"
     y1="21.413"
     y2="278.408">
    <stop
       offset="0"
       stop-color="#8d67af"
       stop-opacity=".672"
       id="stop3" />
    <stop
       offset="1"
       stop-color="#9f8daf"
       id="stop4" />
  </linearGradient>
  <linearGradient
     id="c"
     gradientTransform="matrix(0.12267,0,0,0.21146,11.41,0)"
     gradientUnits="userSpaceOnUse"
     x1="206.428"
     x2="206.428"
     y1="100.918"
     y2="294.312">
    <stop
       offset="0"
       stop-color="#26053d"
       stop-opacity=".762"
       id="stop5" />
    <stop
       offset="1"
       stop-color="#b7b4b4"
       stop-opacity=".278"
       id="stop6" />
  </linearGradient>
  <linearGradient
     id="d"
     gradientTransform="matrix(0.18478,0,0,0.14038,11.41,0)"
     gradientUnits="userSpaceOnUse"
     x1="23.483"
     x2="112.931"
     y1="171.718"
     y2="351.723">
    <stop
       offset="0"
       stop-color="#91739f"
       stop-opacity=".46"
       id="stop7" />
    <stop
       offset="1"
       stop-color="#32054f"
       stop-opacity=".54"
       id="stop8" />
  </linearGradient>
  <linearGradient
     id="e"
     gradientTransform="matrix(0.14184,0,0,0.18287,11.41,0)"
     gradientUnits="userSpaceOnUse"
     x1="226.781"
     x2="67.804"
     y1="317.252"
     y2="147.413">
    <stop
       offset="0"
       stop-color="#463d49"
       stop-opacity=".331"
       id="stop9" />
    <stop
       offset="1"
       stop-color="#340a50"
       stop-opacity=".821"
       id="stop10" />
  </linearGradient>
  <linearGradient
     id="f"
     gradientTransform="matrix(0.10597,0,0,0.24478,11.41,0)"
     gradientUnits="userSpaceOnUse"
     x1="248.016"
     x2="200.705"
     y1="88.755"
     y2="255.005">
    <stop
       offset="0"
       stop-color="#715383"
       stop-opacity=".145"
       id="stop11" />
    <stop
       offset="1"
       stop-color="#f4f4f4"
       stop-opacity=".234"
       id="stop12" />
  </linearGradient>
  <linearGradient
     id="g"
     gradientTransform="matrix(0.09173,0,0,0.28277,11.41,0)"
     gradientUnits="userSpaceOnUse"
     x1="307.564"
     x2="156.451"
     y1="109.963"
     y2="81.527">
    <stop
       offset="0"
       stop-color="#a5a1a8"
       stop-opacity=".356"
       id="stop13" />
    <stop
       offset="1"
       stop-color="#370c50"
       stop-opacity=".582"
       id="stop14" />
  </linearGradient>
  <g
     fill-rule="evenodd"
     id="g23"
     transform="matrix(3.0075369,0,0,2.5592862,-57.856289,-59.901897)">
    <path
       d="m 34.034,0.161 c -4.65,1.648 -9.139,6.459 -13.466,14.431 -6.49,11.96 -14.874,28.954 -3.33,42.41 5.34,6.224 14.158,9.898 25.73,4.08 9.297,-4.675 11.883,-18.09 8.545,-24.393 C 44.628,23.686 37.643,20.479 35.773,12.415 34.526,7.039 33.946,2.955 34.033,0.161 Z"
       fill="url(#a)"
       id="path14"
       style="fill:url(#a)" />
    <path
       d="m 34.034,0 c -4.674,1.665 -9.162,6.476 -13.466,14.431 -6.455,11.934 -14.874,28.954 -3.33,42.41 5.34,6.224 14.045,8.235 18.875,4.544 3.149,-2.407 5.29,-4.701 6.524,-9.535 1.374,-5.382 0.32,-12.629 -0.403,-15.957 -0.914,-4.213 -1.213,-8.836 -0.897,-13.87 a 194.52,194.52 0 0 1 -0.25,-0.304 C 38.573,18.641 36.633,15.961 35.773,12.254 34.526,6.878 33.946,2.794 34.033,0 Z"
       fill="url(#b)"
       id="path15"
       style="fill:url(#b)" />
    <path
       d="m 30.164,2.094 c -4.353,3.44 -7.59,9.21 -9.71,17.31 -3.18,12.151 -3.524,23.356 -2.402,29.874 2.174,12.634 13.446,17.43 25.007,11.55 7.115,-3.62 10.079,-11.388 9.922,-19.82 C 52.818,32.276 35.946,22.381 32.958,15.095 30.966,10.237 30.035,5.903 30.164,2.094 Z"
       fill="url(#c)"
       id="path16"
       style="fill:url(#c)" />
    <path
       d="m 41.2,24.874 c 5.22,6.695 6.358,11.356 3.413,13.982 -4.416,3.939 -15.217,6.509 -21.936,1.744 -4.48,-3.177 -6.175,-9.991 -5.085,-20.444 a 93.87,93.87 0 0 0 -4.69,11.736 C 11.624,35.854 11.25,40 11.782,44.33 c 1.602,3.24 5.495,5.403 11.68,6.491 9.28,1.632 18.06,0.825 23.953,-2.145 3.929,-1.98 5.787,-3.952 5.575,-5.914 0.141,-2.898 -0.752,-5.656 -2.681,-8.276 -1.93,-2.62 -4.966,-5.823 -9.11,-9.613 z"
       fill="url(#d)"
       id="path17"
       style="fill:url(#d)" />
    <path
       d="m 20.8,18.189 c -0.044,4.835 1.199,9.431 3.729,13.79 3.795,6.536 8.225,12.994 14.854,18.348 4.42,3.57 7.951,4.722 10.594,3.46 -2.17,3.885 -4.48,5.789 -6.925,5.711 -3.669,-0.116 -8.142,-1.72 -15.31,-10.333 -4.778,-5.742 -8.047,-11.174 -9.806,-16.295 0.279,-2.032 0.575,-4.055 0.887,-6.07 0.313,-2.016 0.972,-4.886 1.976,-8.611 z"
       fill="url(#e)"
       id="path18"
       style="fill:url(#e)" />
    <path
       d="m 32.011,24.824 c 0.406,3.94 1.938,10.24 0,14.435 -1.938,4.195 -10.89,11.773 -8.42,18.45 2.472,6.675 8.494,5.177 12.272,2.1 3.778,-3.077 5.8,-8.08 6.248,-11.598 0.448,-3.518 -1.072,-10.287 -1.567,-16.176 -0.33,-3.925 -0.106,-7.29 0.671,-10.097 l -1.157,-1.456 -6.814,-2.018 c -1.092,1.615 -1.503,3.735 -1.233,6.36 z"
       fill="url(#f)"
       id="path19"
       style="fill:url(#f)" />
    <path
       d="m 34.443,5.315 c -2.205,0.932 -4.294,2.778 -6.268,5.539 -2.96,4.141 -4.468,6.624 -3.352,14.833 0.744,5.473 1.277,10.508 1.598,15.105 L 35.964,13.065 A 94.747,94.747 0 0 1 35.089,9.237 58.628,58.628 0 0 1 34.443,5.315 Z"
       fill="url(#g)"
       id="path20"
       style="fill:url(#g)" />
    <path
       d="m 35.946,13.01 c -2.423,1.414 -4.3,4.31 -5.632,8.69 -1.331,4.38 -2.55,10.503 -3.655,18.37 1.474,-5.004 2.452,-8.627 2.933,-10.872 0.722,-3.366 0.969,-8.127 2.887,-11.359 1.278,-2.155 2.434,-3.764 3.467,-4.83 z"
       fill="#330a4c"
       fill-opacity="0.316"
       id="path21" />
    <path
       d="m 24.729,59.938 c 3.986,0.57 6.071,1.076 6.254,1.52 0.274,0.664 -0.505,1.272 -2.718,0.863 -1.475,-0.272 -2.654,-1.067 -3.536,-2.383 z"
       fill="#ffffff"
       id="path22" />
    <path
       d="m 26.732,5.315 c -2.193,2.62 -4.093,5.397 -5.7,8.331 -1.607,2.934 -2.757,5.125 -3.446,6.569 -0.214,1.077 -0.318,2.666 -0.313,4.767 0.005,2.102 0.187,4.439 0.545,7.01 A 56.379,56.379 0 0 1 20.7,17.328 c 1.608,-4.74 3.618,-8.745 6.032,-12.013 z"
       fill="#ededed"
       fill-opacity="0.603"
       id="path23" />
  </g>
</svg>
